<?xml version="1.0" encoding="UTF-8"?>
<!-- Generated by Pixelmator Pro 4.0 -->
<svg width="24" height="24" viewBox="0 0 24 24" xmlns="http://www.w3.org/2000/svg">
    <path id="Path" fill="#663399" stroke="none" d="M 0 0 L 0 20.16 C 0 22.280773 1.719227 24 3.84 24 L 20.16 24 C 22.280773 24 24 22.280773 24 20.16 L 24 3.84 C 24 1.719227 22.280773 0 20.16 0 Z M 14.256 13.08 C 15.816 13.08 16.535999 14.16 16.559999 15.72 L 14.952 15.72 C 14.976 15.432 14.904 15.12 14.808 14.88 C 14.712 14.688 14.52 14.616 14.256 14.616 C 13.8 14.616 13.56 14.88 13.56 15.456 C 13.536 16.032 13.848 16.344 14.328 16.535999 C 15.048 16.823999 15.936 17.280001 16.247999 17.832001 C 16.535999 18.264 16.68 18.816 16.68 19.488001 C 16.68 21.096001 15.768 22.08 14.184 22.08 C 12.528 22.08 11.784 21.048 11.76 19.392 L 13.44 19.392 C 13.44 20.184 13.704 20.568001 14.232 20.568001 C 14.496 20.568001 14.688 20.496 14.784 20.327999 C 14.976 20.016001 15.024 19.152 14.736 18.816 C 14.424 18.408001 13.824 18.216 13.416 18 C 12.864 17.736 12.456 17.424 12.192 17.063999 C 11.952 16.704 11.832 16.176001 11.832 15.528 C 11.832 14.088 12.768 13.056 14.256 13.08 M 19.656 13.08 C 21.24 13.08 21.959999 14.16 21.983999 15.72 L 20.375999 15.72 C 20.375999 15.432 20.327999 15.12 20.208 14.88 C 20.112 14.688 19.944 14.616 19.68 14.616 C 19.200001 14.616 18.959999 14.88 18.959999 15.456 C 18.959999 16.032 19.247999 16.344 19.752001 16.535999 C 20.448 16.823999 21.360001 17.280001 21.672001 17.832001 C 21.936001 18.264 22.08 18.816 22.08 19.488001 C 22.104 21.096001 21.191999 22.08 19.608 22.08 C 17.927999 22.08 17.184 21.024 17.16 19.392 L 18.84 19.392 C 18.84 20.136 19.104 20.568001 19.632 20.568001 C 19.896 20.568001 20.087999 20.496 20.184 20.327999 C 20.4 20.016001 20.448 19.152 20.136 18.816 C 19.848 18.408001 19.247999 18.216 18.816 18 C 18.264 17.736 17.856001 17.424 17.615999 17.063999 C 17.375999 16.704 17.256001 16.176001 17.256001 15.528 C 17.232 14.088 18.167999 13.056 19.656 13.08 M 8.625 13.098 C 9.336 13.092 10.044 13.296 10.464 13.728 C 10.896 14.16 11.136 14.856 11.112 15.72 L 9.336 15.72 C 9.36 15.264 9.24 14.928 8.904 14.76 C 8.592 14.616 8.136 14.712 8.016 15 C 7.896 15.264 7.824 15.576 7.848 15.864 L 7.848 19.368 C 7.848 20.112 8.112 20.496 8.616 20.496 C 8.832504 20.505522 9.039515 20.406517 9.168 20.232 C 9.336 19.992001 9.36 19.68 9.336 19.392 L 11.112 19.392 C 11.208 21.024 10.128 22.104 8.544 22.08 C 7.008 22.08 6.048 21.216 6.072 19.608 L 6.072 15.576 C 6.072 14.76 6.312 14.136 6.768 13.728 C 7.2 13.32 7.914 13.104 8.625 13.098"/>
</svg>
