<svg width="373" height="373" viewBox="0 0 373 373" fill="none" xmlns="http://www.w3.org/2000/svg">
<path fill-rule="evenodd" clip-rule="evenodd" d="M235.456 5.90583L221.469 2.7975L204.839 0.777083L185.101 0L172.046 0.310833L160.079 0.9325L149.045 1.865L139.098 3.41917L130.084 5.28417L122.158 7.61542L115.319 10.4129L109.413 13.5212L104.595 17.0958L100.71 21.1367L98.0679 25.4883L96.3583 30.3063L95.5813 35.5904L95.8921 41.3408L96.0475 84.0804H186.811V96.98H59.9908L59.0583 96.8246H56.5717L52.8417 96.98L47.8683 97.7571L42.2733 99.3112L36.0567 101.798L29.5292 105.528L23.0017 110.657L16.785 117.495L11.19 126.354L6.21667 137.388L2.48667 150.91L4.90233e-06 167.073L-0.932495 186.034L-0.155412 205.15L2.02042 221.469L5.28417 235.145L9.63584 246.491L14.6092 255.66L20.0488 262.81L25.6438 268.405L31.2388 272.445L36.6783 275.243L41.6517 277.108L46.0033 278.196L49.2671 278.662H83.925V231.105L84.2358 227.841L84.8575 223.645L85.9454 218.671L87.4996 213.232L89.8308 207.481L92.9392 201.886L97.1354 196.447L102.264 191.473L108.636 187.277L116.407 183.858L125.577 181.682L136.3 180.905H229.084L232.348 180.594L236.389 179.972L241.051 178.885L246.18 177.33L251.62 175.155L257.059 172.202L262.188 168.316L266.85 163.498L270.891 157.593L274.155 150.443L276.175 141.895L276.952 132.104V49.1117L277.108 47.0912L276.797 43.9829L276.175 39.9421L274.621 35.2796L272.135 30.1508L268.249 24.8667L262.965 19.5825L255.971 14.6092L246.802 9.94667L235.456 5.90583ZM119.982 38.6987L123.556 33.57L128.685 30.1508L135.057 28.7521L141.429 30.1508L146.558 33.57L150.133 38.6987L151.376 45.0708L150.133 51.4429L146.558 56.7271L141.429 60.1462L135.057 61.545L128.685 60.1462L123.556 56.7271L119.982 51.4429L118.738 45.0708L119.982 38.6987Z" fill="#DCD100"/>
<path fill-rule="evenodd" clip-rule="evenodd" d="M326.997 94.9596L331.348 95.8921L336.322 97.7571L341.761 100.555L347.356 104.751L352.951 110.19L358.391 117.495L363.364 126.665L367.716 138.01L370.98 151.687L373.155 167.85L373.932 186.966L373 206.082L370.513 222.246L366.783 235.612L361.81 246.646L356.215 255.505L349.998 262.499L343.471 267.627L336.943 271.357L330.727 273.844L325.132 275.243L320.158 276.02L316.428 276.331L313.942 276.175H186.189V288.92H276.952L277.108 331.815L277.419 337.41L276.642 342.694L274.932 347.512L272.29 352.019L268.405 355.904L263.587 359.634L257.681 362.742L250.842 365.385L242.916 367.716L233.902 369.736L223.955 371.135L212.921 372.223L200.954 372.845L187.899 373L168.161 372.378L151.531 370.202L137.544 367.094L126.198 363.209L117.029 358.546L110.035 353.417L104.751 348.133L100.865 342.849L98.3788 337.72L96.8246 333.058L96.2029 329.172L95.8921 326.064L96.0475 324.044V241.051L96.8246 231.105L98.845 222.712L102.109 215.563L106.15 209.657L110.812 204.684L115.941 200.954L121.38 197.845L126.82 195.67L131.949 194.115L136.611 193.183L140.652 192.561L143.916 192.25L145.936 192.095H236.7L247.423 191.318L256.593 189.142L264.364 185.878L270.736 181.527L275.865 176.553L280.061 171.114L283.169 165.519L285.5 159.924L287.055 154.484L288.143 149.511L288.764 145.159L289.075 141.895V94.3379H321.557L323.733 94.4933L326.997 94.9596ZM222.868 321.557L226.442 316.428L231.571 312.854L237.943 311.61L244.315 312.854L249.444 316.428L253.018 321.557L254.262 327.929L253.018 334.301L249.444 339.43L244.315 343.005L237.943 344.248L231.571 343.005L226.442 339.43L222.868 334.301L221.624 327.929L222.868 321.557Z" fill="#005CDC"/>
</svg>
